<svg width="35" height="30" viewBox="0 0 35 30" fill="none" xmlns="http://www.w3.org/2000/svg">
<path d="M8.74999 23.75C8.74999 25.125 10.0625 26.25 11.6667 26.25H23.3333C24.9375 26.25 26.25 25.125 26.25 23.75V11.25C26.25 9.875 24.9375 8.75 23.3333 8.75H11.6667C10.0625 8.75 8.74999 9.875 8.74999 11.25V23.75ZM26.25 5H22.6042L21.5687 4.1125C21.3062 3.8875 20.9271 3.75 20.5479 3.75H14.4521C14.0729 3.75 13.6937 3.8875 13.4312 4.1125L12.3958 5H8.74999C7.94791 5 7.29166 5.5625 7.29166 6.25C7.29166 6.9375 7.94791 7.5 8.74999 7.5H26.25C27.0521 7.5 27.7083 6.9375 27.7083 6.25C27.7083 5.5625 27.0521 5 26.25 5Z" fill="white"/>
</svg>
